<svg xmlns="http://www.w3.org/2000/svg" width="2048" height="1094" viewBox="0 0 2048 1094"><path d="M 1866 801 L 1865 802 L 1865 852 L 1883 852 L 1883 802 L 1882 801 Z" fill="#ff2900"/><path d="M 2021 800 L 2020 801 L 2016 801 L 2015 802 L 2013 802 L 2012 803 L 2011 803 L 2007 807 L 2007 808 L 2006 809 L 2006 810 L 2005 811 L 2005 820 L 2006 820 L 2007 821 L 2007 823 L 2008 823 L 2010 825 L 2011 825 L 2012 826 L 2013 826 L 2014 827 L 2015 827 L 2016 828 L 2017 828 L 2018 829 L 2020 829 L 2021 830 L 2023 830 L 2024 831 L 2027 831 L 2028 832 L 2029 832 L 2030 833 L 2031 833 L 2035 837 L 2035 839 L 2031 843 L 2019 843 L 2018 842 L 2017 842 L 2013 838 L 2011 838 L 2006 843 L 2005 843 L 2003 845 L 2002 845 L 2002 846 L 2005 849 L 2006 849 L 2008 851 L 2011 851 L 2012 852 L 2015 852 L 2016 853 L 2019 853 L 2020 854 L 2030 854 L 2031 853 L 2035 853 L 2036 852 L 2037 852 L 2038 851 L 2042 851 L 2044 849 L 2045 849 L 2047 847 L 2047 829 L 2044 826 L 2043 826 L 2042 825 L 2041 825 L 2040 824 L 2039 824 L 2038 823 L 2036 823 L 2035 822 L 2031 822 L 2030 821 L 2027 821 L 2025 819 L 2024 819 L 2023 818 L 2022 818 L 2019 815 L 2020 814 L 2020 813 L 2022 811 L 2023 811 L 2024 810 L 2031 810 L 2032 811 L 2033 811 L 2034 812 L 2035 812 L 2036 813 L 2037 813 L 2039 815 L 2040 814 L 2041 814 L 2044 811 L 2045 811 L 2047 809 L 2047 805 L 2046 804 L 2045 804 L 2044 803 L 2043 803 L 2042 802 L 2041 802 L 2040 801 L 2035 801 L 2034 800 Z" fill="#ff2900"/><path d="M 1936 800 L 1935 801 L 1929 801 L 1928 802 L 1926 802 L 1925 803 L 1924 803 L 1923 804 L 1922 804 L 1920 806 L 1919 806 L 1916 809 L 1915 809 L 1914 810 L 1914 811 L 1912 813 L 1912 814 L 1911 815 L 1911 816 L 1910 817 L 1910 819 L 1909 820 L 1909 823 L 1908 824 L 1908 830 L 1909 831 L 1909 835 L 1910 836 L 1910 837 L 1911 838 L 1911 839 L 1912 840 L 1912 841 L 1913 841 L 1914 842 L 1914 843 L 1918 847 L 1919 847 L 1921 849 L 1922 849 L 1923 850 L 1924 850 L 1925 851 L 1928 851 L 1929 852 L 1932 852 L 1933 853 L 1938 853 L 1939 854 L 1951 854 L 1952 853 L 1957 853 L 1958 852 L 1961 852 L 1962 851 L 1965 851 L 1966 850 L 1967 850 L 1968 849 L 1969 849 L 1970 848 L 1971 848 L 1974 845 L 1974 843 L 1972 843 L 1971 842 L 1969 842 L 1968 841 L 1966 841 L 1965 840 L 1964 840 L 1963 839 L 1961 839 L 1960 840 L 1959 840 L 1957 842 L 1955 842 L 1954 843 L 1948 843 L 1947 844 L 1942 844 L 1941 843 L 1934 843 L 1933 842 L 1932 842 L 1931 841 L 1930 841 L 1924 835 L 1924 834 L 1923 833 L 1923 832 L 1924 831 L 1980 831 L 1980 823 L 1979 822 L 1979 819 L 1978 818 L 1978 817 L 1977 816 L 1977 815 L 1976 814 L 1976 813 L 1970 807 L 1969 807 L 1967 805 L 1966 805 L 1964 803 L 1963 803 L 1962 802 L 1960 802 L 1959 801 L 1953 801 L 1952 800 Z" fill="#ff2900"/><path d="M 1791 800 L 1790 801 L 1784 801 L 1783 802 L 1782 802 L 1781 803 L 1780 803 L 1779 804 L 1778 804 L 1774 808 L 1773 808 L 1772 809 L 1772 810 L 1768 814 L 1768 818 L 1767 819 L 1767 822 L 1766 823 L 1766 828 L 1767 829 L 1767 833 L 1768 834 L 1768 837 L 1769 838 L 1769 839 L 1775 845 L 1776 845 L 1779 848 L 1780 848 L 1781 849 L 1782 849 L 1783 850 L 1785 850 L 1786 851 L 1796 851 L 1797 852 L 1801 852 L 1802 851 L 1810 851 L 1811 850 L 1813 850 L 1814 849 L 1815 849 L 1816 848 L 1817 848 L 1820 845 L 1821 846 L 1821 848 L 1820 849 L 1820 854 L 1819 855 L 1819 856 L 1814 861 L 1813 861 L 1812 862 L 1811 862 L 1810 863 L 1807 863 L 1806 864 L 1796 864 L 1795 863 L 1792 863 L 1791 862 L 1789 862 L 1787 860 L 1786 860 L 1785 859 L 1767 859 L 1767 860 L 1768 861 L 1768 862 L 1770 864 L 1770 865 L 1771 865 L 1774 868 L 1775 868 L 1776 869 L 1777 869 L 1779 871 L 1780 871 L 1781 872 L 1788 872 L 1789 873 L 1798 873 L 1799 874 L 1805 874 L 1806 873 L 1814 873 L 1815 872 L 1820 872 L 1821 871 L 1823 871 L 1824 870 L 1825 870 L 1827 868 L 1828 868 L 1829 867 L 1829 866 L 1834 861 L 1834 860 L 1835 859 L 1835 857 L 1836 856 L 1836 854 L 1837 853 L 1837 801 L 1821 801 L 1821 806 L 1820 807 L 1817 804 L 1816 804 L 1815 803 L 1814 803 L 1813 802 L 1811 802 L 1810 801 L 1805 801 L 1804 800 Z" fill="#ff2900"/><path d="M 1700 800 L 1699 801 L 1693 801 L 1692 802 L 1690 802 L 1689 803 L 1688 803 L 1687 804 L 1686 804 L 1682 808 L 1681 808 L 1675 814 L 1675 815 L 1674 816 L 1674 821 L 1673 822 L 1673 832 L 1674 833 L 1674 838 L 1675 839 L 1675 840 L 1682 847 L 1683 847 L 1686 850 L 1687 850 L 1688 851 L 1692 851 L 1693 852 L 1695 852 L 1696 853 L 1701 853 L 1702 854 L 1713 854 L 1714 853 L 1718 853 L 1719 852 L 1721 852 L 1722 851 L 1725 851 L 1726 850 L 1727 850 L 1728 849 L 1729 849 L 1730 848 L 1731 848 L 1736 843 L 1736 842 L 1737 841 L 1738 841 L 1739 840 L 1739 839 L 1740 838 L 1740 837 L 1741 836 L 1741 833 L 1742 832 L 1742 821 L 1741 820 L 1741 818 L 1740 817 L 1740 816 L 1739 815 L 1739 814 L 1735 810 L 1735 809 L 1734 808 L 1733 808 L 1731 806 L 1730 806 L 1728 804 L 1727 804 L 1726 803 L 1725 803 L 1724 802 L 1722 802 L 1721 801 L 1715 801 L 1714 800 Z" fill="#ff2900"/><path d="M 1565 800 L 1564 801 L 1559 801 L 1558 802 L 1556 802 L 1555 803 L 1553 803 L 1551 805 L 1550 805 L 1543 812 L 1542 812 L 1541 813 L 1541 814 L 1540 815 L 1540 816 L 1539 817 L 1539 822 L 1538 823 L 1538 830 L 1539 831 L 1539 837 L 1540 838 L 1540 839 L 1543 842 L 1543 843 L 1545 845 L 1546 845 L 1550 849 L 1551 849 L 1553 851 L 1557 851 L 1558 852 L 1560 852 L 1561 853 L 1566 853 L 1567 854 L 1578 854 L 1579 853 L 1583 853 L 1584 852 L 1587 852 L 1588 851 L 1591 851 L 1592 850 L 1593 850 L 1594 849 L 1595 849 L 1597 847 L 1598 847 L 1600 845 L 1600 844 L 1605 839 L 1605 838 L 1606 837 L 1606 835 L 1607 834 L 1607 831 L 1608 830 L 1608 824 L 1607 823 L 1607 820 L 1606 819 L 1606 817 L 1605 816 L 1605 815 L 1604 814 L 1604 813 L 1603 812 L 1602 812 L 1600 810 L 1600 809 L 1598 807 L 1597 807 L 1595 805 L 1594 805 L 1593 804 L 1592 804 L 1591 803 L 1590 803 L 1589 802 L 1588 802 L 1587 801 L 1580 801 L 1579 800 Z" fill="#ff2900"/><path d="M 1480 800 L 1479 801 L 1474 801 L 1473 802 L 1472 802 L 1471 803 L 1470 803 L 1469 804 L 1468 804 L 1467 805 L 1466 804 L 1466 801 L 1451 801 L 1451 852 L 1466 852 L 1466 828 L 1467 827 L 1467 823 L 1468 822 L 1468 821 L 1470 819 L 1470 818 L 1472 816 L 1472 815 L 1474 813 L 1475 813 L 1475 812 L 1476 811 L 1477 811 L 1478 810 L 1487 810 L 1488 811 L 1489 811 L 1494 816 L 1494 817 L 1495 818 L 1495 820 L 1496 821 L 1496 852 L 1512 852 L 1512 816 L 1511 815 L 1511 812 L 1510 811 L 1510 810 L 1509 809 L 1509 808 L 1506 805 L 1506 804 L 1505 804 L 1503 802 L 1502 802 L 1501 801 L 1496 801 L 1495 800 Z" fill="#ff2900"/><path d="M 1292 800 L 1291 801 L 1284 801 L 1283 802 L 1281 802 L 1280 803 L 1279 803 L 1278 804 L 1277 804 L 1276 805 L 1275 805 L 1273 807 L 1272 807 L 1270 809 L 1269 809 L 1269 810 L 1267 812 L 1266 812 L 1266 813 L 1264 815 L 1264 816 L 1263 817 L 1263 818 L 1262 819 L 1262 822 L 1261 823 L 1261 832 L 1262 833 L 1262 835 L 1263 836 L 1263 838 L 1265 840 L 1265 841 L 1266 841 L 1269 844 L 1269 845 L 1271 847 L 1272 847 L 1273 848 L 1274 848 L 1275 849 L 1276 849 L 1277 850 L 1278 850 L 1279 851 L 1283 851 L 1284 852 L 1287 852 L 1288 853 L 1293 853 L 1294 854 L 1307 854 L 1308 853 L 1312 853 L 1313 852 L 1316 852 L 1317 851 L 1321 851 L 1322 850 L 1323 850 L 1324 849 L 1325 849 L 1327 847 L 1328 847 L 1330 845 L 1330 843 L 1328 843 L 1327 842 L 1326 842 L 1325 841 L 1324 841 L 1323 840 L 1322 840 L 1321 839 L 1320 839 L 1319 838 L 1317 838 L 1315 840 L 1314 840 L 1313 841 L 1312 841 L 1310 843 L 1290 843 L 1289 842 L 1288 842 L 1287 841 L 1286 841 L 1283 838 L 1282 838 L 1280 836 L 1280 835 L 1278 833 L 1278 821 L 1284 815 L 1285 815 L 1287 813 L 1288 813 L 1289 812 L 1290 812 L 1291 811 L 1294 811 L 1295 810 L 1306 810 L 1307 811 L 1310 811 L 1312 813 L 1313 813 L 1314 814 L 1315 814 L 1316 815 L 1317 815 L 1318 816 L 1319 816 L 1320 815 L 1321 815 L 1322 814 L 1324 814 L 1325 813 L 1326 813 L 1327 812 L 1329 812 L 1330 811 L 1330 809 L 1327 806 L 1326 806 L 1325 805 L 1324 805 L 1323 804 L 1322 804 L 1321 803 L 1320 803 L 1319 802 L 1318 802 L 1317 801 L 1310 801 L 1309 800 Z" fill="#ff2900"/><path d="M 1194 800 L 1193 801 L 1186 801 L 1185 802 L 1184 802 L 1183 803 L 1181 803 L 1179 805 L 1178 805 L 1177 806 L 1176 806 L 1175 807 L 1175 808 L 1171 812 L 1170 812 L 1169 813 L 1169 814 L 1168 815 L 1168 816 L 1167 817 L 1167 819 L 1166 820 L 1166 825 L 1165 826 L 1165 828 L 1166 829 L 1166 834 L 1167 835 L 1167 837 L 1168 838 L 1168 839 L 1175 846 L 1175 847 L 1176 847 L 1178 849 L 1179 849 L 1180 850 L 1181 850 L 1182 851 L 1186 851 L 1187 852 L 1189 852 L 1190 853 L 1195 853 L 1196 854 L 1208 854 L 1209 853 L 1215 853 L 1216 852 L 1218 852 L 1219 851 L 1223 851 L 1224 850 L 1225 850 L 1227 848 L 1228 848 L 1232 844 L 1232 843 L 1229 843 L 1228 842 L 1227 842 L 1226 841 L 1224 841 L 1223 840 L 1222 840 L 1221 839 L 1218 839 L 1215 842 L 1213 842 L 1212 843 L 1206 843 L 1205 844 L 1199 844 L 1198 843 L 1191 843 L 1190 842 L 1189 842 L 1188 841 L 1187 841 L 1184 838 L 1184 837 L 1182 835 L 1182 834 L 1181 833 L 1181 832 L 1182 831 L 1237 831 L 1237 822 L 1236 821 L 1236 817 L 1235 816 L 1235 815 L 1234 814 L 1234 813 L 1233 812 L 1232 812 L 1225 805 L 1224 805 L 1223 804 L 1222 804 L 1221 803 L 1220 803 L 1219 802 L 1217 802 L 1216 801 L 1210 801 L 1209 800 Z" fill="#ff2900"/><path d="M 1082 783 L 1082 795 L 1103 795 L 1104 796 L 1104 852 L 1122 852 L 1122 796 L 1123 795 L 1144 795 L 1144 783 Z" fill="#ff2900"/><path d="M 1633 781 L 1633 852 L 1648 852 L 1648 781 Z" fill="#ff2900"/><path d="M 1360 781 L 1360 852 L 1376 852 L 1376 827 L 1377 826 L 1377 823 L 1378 822 L 1378 821 L 1380 819 L 1380 818 L 1382 816 L 1382 815 L 1385 812 L 1386 812 L 1387 811 L 1389 811 L 1390 810 L 1395 810 L 1396 811 L 1398 811 L 1400 813 L 1401 813 L 1403 815 L 1403 816 L 1404 817 L 1404 820 L 1405 821 L 1405 852 L 1421 852 L 1421 813 L 1420 812 L 1420 811 L 1419 810 L 1419 809 L 1417 807 L 1417 806 L 1416 806 L 1412 802 L 1410 802 L 1409 801 L 1387 801 L 1386 802 L 1384 802 L 1383 803 L 1382 803 L 1381 804 L 1380 804 L 1379 805 L 1378 805 L 1377 806 L 1376 805 L 1376 781 Z" fill="#ff2900"/><path d="M 1868 780 L 1867 781 L 1866 781 L 1865 782 L 1865 783 L 1864 784 L 1864 791 L 1868 795 L 1870 795 L 1871 796 L 1878 796 L 1879 795 L 1880 795 L 1884 791 L 1884 784 L 1880 780 Z" fill="#ff2900"/><path d="M 10 636 L 10 640 L 11 641 L 11 649 L 12 650 L 12 653 L 13 654 L 13 658 L 14 659 L 14 663 L 15 664 L 15 667 L 16 668 L 16 671 L 17 672 L 17 675 L 18 676 L 18 679 L 19 680 L 19 682 L 20 683 L 20 685 L 21 686 L 21 692 L 22 693 L 22 696 L 23 697 L 23 699 L 24 700 L 24 703 L 25 704 L 25 705 L 26 706 L 26 708 L 27 709 L 27 711 L 28 712 L 28 714 L 29 715 L 29 716 L 30 717 L 30 720 L 31 721 L 31 723 L 32 724 L 32 727 L 33 728 L 33 730 L 34 731 L 34 733 L 35 734 L 35 735 L 36 736 L 36 737 L 37 738 L 37 740 L 38 741 L 38 743 L 39 744 L 39 746 L 41 748 L 41 749 L 42 750 L 42 754 L 43 755 L 43 756 L 44 757 L 44 758 L 45 759 L 45 761 L 46 762 L 46 763 L 47 764 L 47 765 L 48 766 L 48 767 L 49 768 L 49 769 L 50 770 L 50 771 L 51 772 L 51 773 L 52 774 L 52 775 L 53 776 L 53 779 L 54 780 L 54 781 L 55 782 L 55 783 L 56 784 L 56 785 L 57 786 L 57 787 L 58 788 L 58 789 L 60 791 L 60 792 L 61 793 L 61 794 L 62 795 L 62 796 L 63 797 L 63 799 L 64 800 L 64 801 L 65 802 L 65 803 L 67 805 L 67 806 L 68 807 L 68 809 L 71 812 L 71 813 L 72 814 L 72 815 L 73 816 L 73 818 L 75 820 L 75 821 L 76 822 L 76 823 L 78 825 L 78 826 L 80 828 L 80 829 L 83 832 L 83 833 L 84 834 L 84 837 L 87 840 L 87 841 L 88 841 L 89 842 L 89 843 L 90 844 L 90 845 L 92 847 L 92 848 L 94 850 L 94 851 L 95 852 L 95 853 L 97 855 L 97 856 L 99 858 L 99 859 L 104 864 L 104 865 L 105 866 L 105 868 L 108 871 L 108 872 L 109 872 L 111 874 L 111 875 L 114 878 L 114 879 L 115 880 L 115 881 L 120 886 L 120 887 L 123 890 L 123 891 L 128 896 L 128 897 L 133 902 L 133 903 L 134 903 L 136 905 L 136 907 L 137 907 L 138 908 L 138 909 L 143 914 L 144 914 L 146 916 L 146 918 L 152 924 L 153 924 L 157 928 L 157 929 L 163 935 L 164 935 L 167 938 L 167 939 L 173 945 L 174 945 L 177 948 L 177 949 L 181 953 L 182 953 L 184 955 L 185 955 L 188 958 L 188 959 L 190 961 L 191 961 L 195 965 L 196 965 L 200 969 L 201 969 L 206 974 L 207 974 L 209 976 L 210 976 L 215 981 L 216 981 L 221 986 L 222 986 L 223 987 L 224 987 L 225 988 L 226 988 L 232 994 L 233 994 L 235 996 L 236 996 L 237 997 L 238 997 L 240 999 L 241 999 L 244 1002 L 245 1002 L 247 1004 L 248 1004 L 251 1007 L 253 1007 L 254 1008 L 255 1008 L 257 1010 L 258 1010 L 262 1014 L 263 1014 L 264 1015 L 265 1015 L 267 1017 L 268 1017 L 269 1018 L 271 1018 L 273 1020 L 274 1020 L 275 1021 L 276 1021 L 278 1023 L 279 1023 L 281 1025 L 282 1025 L 283 1026 L 284 1026 L 286 1028 L 289 1028 L 290 1029 L 291 1029 L 293 1031 L 294 1031 L 296 1033 L 297 1033 L 298 1034 L 299 1034 L 300 1035 L 301 1035 L 303 1037 L 304 1037 L 305 1038 L 306 1038 L 307 1039 L 310 1039 L 311 1040 L 312 1040 L 314 1042 L 316 1042 L 318 1044 L 320 1044 L 321 1045 L 322 1045 L 324 1047 L 325 1047 L 326 1048 L 328 1048 L 329 1049 L 332 1049 L 334 1051 L 336 1051 L 337 1052 L 338 1052 L 339 1053 L 341 1053 L 342 1054 L 343 1054 L 345 1056 L 347 1056 L 348 1057 L 350 1057 L 351 1058 L 352 1058 L 353 1059 L 356 1059 L 357 1060 L 359 1060 L 360 1061 L 362 1061 L 363 1062 L 364 1062 L 365 1063 L 367 1063 L 368 1064 L 370 1064 L 371 1065 L 372 1065 L 373 1066 L 375 1066 L 376 1067 L 377 1067 L 378 1068 L 380 1068 L 381 1069 L 384 1069 L 385 1070 L 389 1070 L 390 1071 L 392 1071 L 393 1072 L 395 1072 L 396 1073 L 398 1073 L 399 1074 L 401 1074 L 402 1075 L 405 1075 L 406 1076 L 408 1076 L 409 1077 L 411 1077 L 412 1078 L 415 1078 L 416 1079 L 419 1079 L 420 1080 L 426 1080 L 427 1081 L 431 1081 L 432 1082 L 435 1082 L 436 1083 L 439 1083 L 440 1084 L 444 1084 L 445 1085 L 448 1085 L 449 1086 L 454 1086 L 455 1087 L 459 1087 L 460 1088 L 465 1088 L 466 1089 L 471 1089 L 472 1090 L 478 1090 L 479 1091 L 493 1091 L 494 1092 L 502 1092 L 503 1093 L 644 1093 L 644 977 L 645 976 L 719 976 L 721 978 L 721 979 L 722 980 L 722 981 L 724 983 L 724 984 L 729 989 L 729 990 L 732 993 L 733 993 L 737 997 L 738 997 L 739 998 L 740 998 L 742 1000 L 743 1000 L 744 1001 L 745 1001 L 746 1002 L 747 1002 L 748 1003 L 749 1003 L 751 1005 L 753 1005 L 754 1006 L 756 1006 L 757 1007 L 766 1007 L 767 1008 L 779 1008 L 780 1007 L 789 1007 L 790 1006 L 792 1006 L 793 1005 L 795 1005 L 796 1004 L 797 1004 L 798 1003 L 799 1003 L 800 1002 L 801 1002 L 802 1001 L 803 1001 L 805 999 L 806 999 L 808 997 L 809 997 L 811 995 L 812 995 L 820 987 L 820 986 L 822 984 L 822 983 L 824 981 L 824 980 L 826 978 L 826 977 L 828 975 L 828 974 L 829 973 L 829 971 L 830 970 L 830 968 L 831 967 L 831 962 L 832 961 L 832 957 L 833 956 L 833 940 L 832 939 L 832 935 L 831 934 L 831 929 L 830 928 L 830 926 L 829 925 L 829 924 L 828 923 L 828 922 L 827 921 L 827 920 L 826 919 L 826 918 L 825 917 L 825 916 L 821 912 L 821 911 L 820 910 L 820 909 L 816 905 L 815 905 L 808 898 L 807 898 L 805 896 L 804 896 L 803 895 L 800 895 L 798 893 L 797 893 L 796 892 L 794 892 L 793 891 L 791 891 L 790 890 L 788 890 L 787 889 L 783 889 L 782 888 L 764 888 L 763 889 L 760 889 L 759 890 L 756 890 L 755 891 L 753 891 L 752 892 L 750 892 L 748 894 L 747 894 L 746 895 L 743 895 L 741 897 L 740 897 L 736 901 L 735 901 L 731 905 L 730 905 L 728 907 L 728 908 L 726 910 L 726 911 L 724 913 L 724 914 L 720 918 L 720 919 L 719 920 L 541 920 L 540 919 L 525 919 L 524 918 L 513 918 L 512 917 L 505 917 L 504 916 L 498 916 L 497 915 L 487 915 L 486 914 L 482 914 L 481 913 L 477 913 L 476 912 L 473 912 L 472 911 L 468 911 L 467 910 L 465 910 L 464 909 L 461 909 L 460 908 L 457 908 L 456 907 L 454 907 L 453 906 L 450 906 L 449 905 L 445 905 L 444 904 L 441 904 L 440 903 L 438 903 L 437 902 L 436 902 L 435 901 L 433 901 L 432 900 L 430 900 L 429 899 L 427 899 L 426 898 L 425 898 L 424 897 L 423 897 L 422 896 L 420 896 L 419 895 L 416 895 L 415 894 L 413 894 L 412 893 L 411 893 L 410 892 L 408 892 L 407 891 L 406 891 L 404 889 L 402 889 L 401 888 L 400 888 L 399 887 L 398 887 L 397 886 L 396 886 L 395 885 L 394 885 L 393 884 L 390 884 L 389 883 L 388 883 L 387 882 L 386 882 L 384 880 L 383 880 L 382 879 L 381 879 L 380 878 L 379 878 L 378 877 L 377 877 L 376 876 L 375 876 L 374 875 L 373 875 L 372 874 L 371 874 L 370 873 L 369 873 L 368 872 L 367 872 L 365 870 L 364 870 L 361 867 L 360 867 L 359 866 L 358 866 L 357 865 L 356 865 L 355 864 L 353 864 L 352 863 L 352 862 L 351 862 L 349 860 L 348 860 L 347 859 L 346 859 L 344 857 L 343 857 L 340 854 L 339 854 L 338 853 L 337 853 L 335 851 L 334 851 L 329 846 L 328 846 L 325 843 L 323 843 L 321 841 L 321 840 L 320 840 L 315 835 L 314 835 L 311 832 L 310 832 L 304 826 L 303 826 L 295 818 L 294 818 L 292 816 L 292 815 L 289 812 L 288 812 L 283 807 L 283 806 L 269 792 L 269 791 L 265 787 L 265 786 L 261 782 L 261 781 L 257 777 L 257 776 L 254 773 L 254 772 L 249 767 L 249 766 L 248 765 L 248 764 L 247 763 L 247 762 L 242 757 L 242 756 L 239 753 L 239 752 L 238 751 L 238 750 L 237 749 L 237 748 L 235 746 L 235 745 L 233 743 L 233 742 L 231 740 L 231 739 L 229 737 L 229 736 L 228 735 L 228 733 L 227 732 L 227 731 L 225 729 L 225 728 L 223 726 L 223 725 L 222 724 L 222 723 L 221 722 L 221 721 L 220 720 L 220 719 L 217 716 L 217 712 L 215 710 L 215 709 L 214 708 L 214 707 L 213 706 L 213 705 L 212 704 L 212 703 L 211 702 L 211 701 L 210 700 L 210 699 L 209 698 L 209 697 L 208 696 L 208 695 L 207 694 L 207 691 L 206 690 L 206 688 L 204 686 L 204 684 L 203 683 L 203 682 L 202 681 L 202 679 L 201 678 L 201 676 L 200 675 L 200 674 L 199 673 L 199 672 L 198 671 L 198 669 L 197 668 L 197 664 L 196 663 L 196 661 L 195 660 L 195 658 L 194 657 L 194 655 L 193 654 L 193 652 L 192 651 L 192 649 L 191 648 L 191 645 L 190 644 L 190 643 L 189 642 L 189 639 L 188 638 L 188 636 L 130 636 L 130 640 L 131 641 L 131 643 L 132 644 L 132 647 L 133 648 L 133 651 L 134 652 L 134 654 L 135 655 L 135 657 L 136 658 L 136 664 L 137 665 L 137 668 L 138 669 L 138 671 L 139 672 L 139 674 L 140 675 L 140 676 L 141 677 L 141 679 L 142 680 L 142 682 L 143 683 L 143 685 L 144 686 L 144 688 L 145 689 L 145 690 L 146 691 L 146 695 L 147 696 L 147 698 L 148 699 L 148 700 L 149 701 L 149 702 L 150 703 L 150 705 L 151 706 L 151 707 L 152 708 L 152 710 L 153 711 L 153 712 L 154 713 L 154 714 L 155 715 L 155 716 L 156 717 L 156 718 L 157 719 L 157 722 L 158 723 L 158 724 L 159 725 L 159 726 L 160 727 L 160 728 L 161 729 L 161 730 L 162 731 L 162 732 L 163 733 L 163 734 L 164 735 L 164 736 L 166 738 L 166 739 L 167 740 L 167 743 L 168 744 L 168 745 L 169 746 L 169 747 L 171 749 L 171 750 L 172 751 L 172 752 L 174 754 L 174 756 L 177 759 L 177 761 L 178 762 L 178 763 L 179 764 L 179 765 L 181 767 L 181 768 L 183 770 L 183 771 L 185 773 L 185 774 L 187 776 L 187 777 L 188 778 L 188 779 L 189 780 L 189 781 L 191 783 L 191 784 L 194 787 L 194 788 L 197 791 L 197 792 L 198 793 L 198 794 L 199 795 L 199 796 L 204 801 L 204 802 L 207 805 L 207 806 L 209 808 L 209 809 L 212 812 L 212 813 L 217 818 L 217 819 L 220 822 L 220 823 L 229 832 L 229 833 L 234 838 L 234 839 L 236 841 L 237 841 L 240 844 L 240 845 L 246 851 L 247 851 L 250 854 L 250 855 L 256 861 L 257 861 L 259 863 L 260 863 L 261 864 L 261 865 L 267 871 L 268 871 L 269 872 L 270 872 L 271 873 L 271 874 L 274 877 L 275 877 L 279 881 L 280 881 L 283 884 L 284 884 L 288 888 L 289 888 L 293 892 L 294 892 L 295 893 L 296 893 L 298 895 L 299 895 L 304 900 L 305 900 L 307 902 L 308 902 L 309 903 L 310 903 L 311 904 L 312 904 L 315 907 L 316 907 L 318 909 L 319 909 L 321 911 L 322 911 L 324 913 L 325 913 L 326 914 L 327 914 L 328 915 L 329 915 L 330 916 L 331 916 L 334 919 L 335 919 L 336 920 L 337 920 L 339 922 L 340 922 L 341 923 L 342 923 L 343 924 L 345 924 L 347 926 L 348 926 L 349 927 L 350 927 L 351 928 L 352 928 L 354 930 L 355 930 L 356 931 L 357 931 L 358 932 L 359 932 L 360 933 L 361 933 L 362 934 L 363 934 L 364 935 L 366 935 L 367 936 L 369 936 L 370 937 L 371 937 L 372 938 L 373 938 L 375 940 L 376 940 L 377 941 L 378 941 L 379 942 L 381 942 L 382 943 L 383 943 L 384 944 L 386 944 L 387 945 L 390 945 L 391 946 L 392 946 L 393 947 L 395 947 L 397 949 L 399 949 L 400 950 L 402 950 L 403 951 L 405 951 L 406 952 L 407 952 L 408 953 L 409 953 L 410 954 L 412 954 L 413 955 L 417 955 L 418 956 L 420 956 L 421 957 L 424 957 L 425 958 L 426 958 L 427 959 L 429 959 L 430 960 L 433 960 L 434 961 L 436 961 L 437 962 L 439 962 L 440 963 L 443 963 L 444 964 L 447 964 L 448 965 L 451 965 L 452 966 L 458 966 L 459 967 L 463 967 L 464 968 L 468 968 L 469 969 L 472 969 L 473 970 L 478 970 L 479 971 L 483 971 L 484 972 L 490 972 L 491 973 L 498 973 L 499 974 L 506 974 L 507 975 L 515 975 L 516 976 L 587 976 L 588 977 L 588 1037 L 587 1038 L 526 1038 L 525 1037 L 512 1037 L 511 1036 L 500 1036 L 499 1035 L 492 1035 L 491 1034 L 486 1034 L 485 1033 L 479 1033 L 478 1032 L 473 1032 L 472 1031 L 467 1031 L 466 1030 L 458 1030 L 457 1029 L 453 1029 L 452 1028 L 448 1028 L 447 1027 L 445 1027 L 444 1026 L 440 1026 L 439 1025 L 437 1025 L 436 1024 L 433 1024 L 432 1023 L 429 1023 L 428 1022 L 426 1022 L 425 1021 L 422 1021 L 421 1020 L 418 1020 L 417 1019 L 413 1019 L 412 1018 L 410 1018 L 409 1017 L 406 1017 L 405 1016 L 404 1016 L 403 1015 L 401 1015 L 400 1014 L 398 1014 L 397 1013 L 395 1013 L 394 1012 L 393 1012 L 392 1011 L 390 1011 L 389 1010 L 387 1010 L 386 1009 L 382 1009 L 381 1008 L 380 1008 L 379 1007 L 377 1007 L 376 1006 L 374 1006 L 372 1004 L 370 1004 L 369 1003 L 368 1003 L 367 1002 L 365 1002 L 364 1001 L 363 1001 L 362 1000 L 361 1000 L 360 999 L 357 999 L 356 998 L 354 998 L 352 996 L 351 996 L 350 995 L 349 995 L 348 994 L 346 994 L 344 992 L 343 992 L 342 991 L 341 991 L 340 990 L 339 990 L 338 989 L 337 989 L 336 988 L 333 988 L 331 986 L 330 986 L 329 985 L 328 985 L 327 984 L 326 984 L 325 983 L 324 983 L 323 982 L 322 982 L 320 980 L 319 980 L 318 979 L 317 979 L 316 978 L 314 978 L 313 977 L 312 977 L 310 975 L 309 975 L 307 973 L 306 973 L 304 971 L 303 971 L 302 970 L 301 970 L 299 968 L 298 968 L 297 967 L 295 967 L 293 965 L 292 965 L 289 962 L 288 962 L 286 960 L 285 960 L 283 958 L 282 958 L 281 957 L 280 957 L 278 955 L 277 955 L 275 953 L 274 953 L 272 951 L 271 951 L 267 947 L 265 947 L 262 944 L 261 944 L 257 940 L 256 940 L 253 937 L 252 937 L 251 936 L 250 936 L 249 935 L 249 934 L 248 934 L 244 930 L 243 930 L 239 926 L 238 926 L 233 921 L 232 921 L 226 915 L 225 915 L 215 905 L 214 905 L 207 898 L 207 897 L 205 895 L 204 895 L 197 888 L 197 887 L 186 876 L 186 875 L 184 873 L 183 873 L 182 872 L 182 871 L 177 866 L 177 865 L 172 860 L 172 859 L 167 854 L 167 853 L 166 853 L 165 852 L 165 851 L 164 850 L 164 849 L 161 846 L 161 845 L 159 843 L 158 843 L 157 842 L 157 841 L 155 839 L 155 837 L 153 835 L 153 834 L 148 829 L 148 828 L 146 826 L 146 825 L 145 824 L 145 823 L 142 820 L 142 819 L 141 818 L 141 817 L 139 815 L 139 814 L 135 810 L 135 809 L 134 808 L 134 806 L 133 805 L 133 804 L 130 801 L 130 800 L 128 798 L 128 797 L 126 795 L 126 794 L 125 793 L 125 792 L 124 791 L 124 790 L 123 789 L 123 788 L 122 787 L 122 786 L 121 785 L 121 784 L 120 783 L 120 782 L 117 779 L 117 778 L 116 777 L 116 776 L 115 775 L 115 774 L 114 773 L 114 772 L 113 771 L 113 769 L 112 768 L 112 767 L 110 765 L 110 763 L 109 762 L 109 761 L 107 759 L 107 758 L 106 757 L 106 756 L 105 755 L 105 754 L 104 753 L 104 752 L 103 751 L 103 748 L 102 747 L 102 746 L 101 745 L 101 744 L 100 743 L 100 742 L 99 741 L 99 739 L 97 737 L 97 736 L 96 735 L 96 733 L 95 732 L 95 730 L 94 729 L 94 728 L 93 727 L 93 724 L 92 723 L 92 721 L 91 720 L 91 719 L 90 718 L 90 717 L 89 716 L 89 714 L 88 713 L 88 711 L 87 710 L 87 709 L 86 708 L 86 707 L 85 706 L 85 704 L 84 703 L 84 701 L 83 700 L 83 698 L 82 697 L 82 693 L 81 692 L 81 690 L 80 689 L 80 686 L 79 685 L 79 683 L 78 682 L 78 680 L 77 679 L 77 677 L 76 676 L 76 674 L 75 673 L 75 670 L 74 669 L 74 666 L 73 665 L 73 663 L 72 662 L 72 655 L 71 654 L 71 651 L 70 650 L 70 647 L 69 646 L 69 643 L 68 642 L 68 637 L 67 636 Z" fill="#ff2900"/><path d="M 1721 385 L 1717 389 L 1717 390 L 1716 391 L 1716 392 L 1714 394 L 1714 395 L 1713 396 L 1712 396 L 1711 397 L 1711 398 L 1708 401 L 1708 402 L 1706 404 L 1706 405 L 1702 409 L 1702 410 L 1699 413 L 1699 414 L 1695 418 L 1695 419 L 1694 420 L 1694 421 L 1691 424 L 1691 425 L 1685 431 L 1685 433 L 1679 439 L 1679 440 L 1675 444 L 1675 445 L 1674 446 L 1674 447 L 1670 451 L 1670 452 L 1667 455 L 1667 456 L 1664 459 L 1664 460 L 1661 463 L 1661 464 L 1657 468 L 1657 469 L 1924 469 L 1925 470 L 1932 470 L 1933 471 L 1935 471 L 1936 472 L 1938 472 L 1939 473 L 1940 473 L 1941 474 L 1942 474 L 1948 480 L 1948 481 L 1949 482 L 1949 483 L 1950 484 L 1950 487 L 1951 488 L 1951 495 L 1950 496 L 1950 499 L 1948 501 L 1948 502 L 1946 504 L 1946 505 L 1942 509 L 1941 509 L 1940 510 L 1937 510 L 1936 511 L 1934 511 L 1933 512 L 1928 512 L 1927 513 L 1752 513 L 1751 514 L 1738 514 L 1737 515 L 1731 515 L 1730 516 L 1725 516 L 1724 517 L 1719 517 L 1718 518 L 1716 518 L 1715 519 L 1711 519 L 1710 520 L 1705 520 L 1704 521 L 1702 521 L 1701 522 L 1699 522 L 1698 523 L 1697 523 L 1696 524 L 1695 524 L 1694 525 L 1692 525 L 1691 526 L 1690 526 L 1689 527 L 1688 527 L 1687 528 L 1686 528 L 1684 530 L 1683 530 L 1682 531 L 1680 531 L 1679 532 L 1678 532 L 1676 534 L 1675 534 L 1668 541 L 1667 541 L 1663 545 L 1663 546 L 1659 550 L 1659 551 L 1658 552 L 1657 552 L 1656 553 L 1656 554 L 1655 555 L 1655 556 L 1654 557 L 1654 559 L 1653 560 L 1653 561 L 1651 563 L 1651 564 L 1650 565 L 1650 567 L 1649 568 L 1649 569 L 1648 570 L 1648 572 L 1647 573 L 1647 575 L 1646 576 L 1646 579 L 1645 580 L 1645 584 L 1644 585 L 1644 592 L 1643 593 L 1643 707 L 1986 707 L 1989 704 L 1989 703 L 1993 699 L 1993 698 L 1995 696 L 1995 695 L 1999 691 L 1999 690 L 2002 687 L 2002 686 L 2005 683 L 2005 682 L 2008 679 L 2008 678 L 2015 671 L 2015 670 L 2016 669 L 2016 668 L 2017 667 L 2017 666 L 2019 664 L 2020 664 L 2020 663 L 2024 659 L 2024 658 L 2026 656 L 2026 655 L 2030 651 L 2030 650 L 2033 647 L 2033 646 L 2037 642 L 2037 641 L 2039 639 L 2039 638 L 2042 635 L 2042 634 L 2043 633 L 2044 633 L 2045 632 L 2045 631 L 2047 629 L 2047 624 L 1741 624 L 1740 623 L 1740 598 L 1741 597 L 1741 593 L 1743 591 L 1743 590 L 1744 589 L 1744 588 L 1746 586 L 1746 585 L 1747 584 L 1748 584 L 1750 582 L 1751 582 L 1752 581 L 1755 581 L 1756 580 L 1759 580 L 1760 579 L 1765 579 L 1766 578 L 1943 578 L 1944 577 L 1953 577 L 1954 576 L 1961 576 L 1962 575 L 1966 575 L 1967 574 L 1971 574 L 1972 573 L 1974 573 L 1975 572 L 1978 572 L 1979 571 L 1984 571 L 1985 570 L 1987 570 L 1988 569 L 1990 569 L 1991 568 L 1992 568 L 1993 567 L 1994 567 L 1995 566 L 1996 566 L 1997 565 L 1998 565 L 1999 564 L 2000 564 L 2001 563 L 2002 563 L 2003 562 L 2004 562 L 2006 560 L 2009 560 L 2011 558 L 2012 558 L 2014 556 L 2015 556 L 2016 555 L 2016 554 L 2018 552 L 2019 552 L 2021 550 L 2022 550 L 2026 546 L 2026 545 L 2029 542 L 2029 541 L 2030 540 L 2031 540 L 2032 539 L 2032 538 L 2034 536 L 2034 535 L 2036 533 L 2036 532 L 2037 531 L 2037 530 L 2038 529 L 2038 528 L 2039 527 L 2039 525 L 2040 524 L 2040 523 L 2041 522 L 2041 521 L 2042 520 L 2042 519 L 2043 518 L 2043 516 L 2044 515 L 2044 512 L 2045 511 L 2045 509 L 2046 508 L 2046 503 L 2047 502 L 2047 468 L 2046 467 L 2046 462 L 2045 461 L 2045 458 L 2044 457 L 2044 455 L 2043 454 L 2043 451 L 2042 450 L 2042 448 L 2040 446 L 2040 444 L 2039 443 L 2039 442 L 2038 441 L 2038 440 L 2037 439 L 2037 437 L 2035 435 L 2035 434 L 2034 433 L 2034 432 L 2032 430 L 2032 429 L 2026 423 L 2026 422 L 2020 416 L 2019 416 L 2013 410 L 2012 410 L 2010 408 L 2009 408 L 2007 406 L 2005 406 L 2003 404 L 2002 404 L 2001 403 L 2000 403 L 1999 402 L 1998 402 L 1997 401 L 1996 401 L 1995 400 L 1994 400 L 1993 399 L 1992 399 L 1991 398 L 1990 398 L 1989 397 L 1987 397 L 1986 396 L 1982 396 L 1981 395 L 1979 395 L 1978 394 L 1976 394 L 1975 393 L 1973 393 L 1972 392 L 1969 392 L 1968 391 L 1965 391 L 1964 390 L 1961 390 L 1960 389 L 1956 389 L 1955 388 L 1950 388 L 1949 387 L 1942 387 L 1941 386 L 1932 386 L 1931 385 Z" fill="#ff2900"/><path d="M 1298 385 L 1297 386 L 1287 386 L 1286 387 L 1280 387 L 1279 388 L 1274 388 L 1273 389 L 1269 389 L 1268 390 L 1264 390 L 1263 391 L 1260 391 L 1259 392 L 1257 392 L 1256 393 L 1253 393 L 1252 394 L 1250 394 L 1249 395 L 1248 395 L 1247 396 L 1242 396 L 1241 397 L 1240 397 L 1239 398 L 1238 398 L 1237 399 L 1236 399 L 1235 400 L 1234 400 L 1233 401 L 1232 401 L 1231 402 L 1230 402 L 1229 403 L 1228 403 L 1226 405 L 1225 405 L 1224 406 L 1222 406 L 1221 407 L 1220 407 L 1216 411 L 1215 411 L 1210 416 L 1209 416 L 1202 423 L 1202 424 L 1197 429 L 1197 430 L 1196 431 L 1196 432 L 1195 433 L 1195 434 L 1192 437 L 1192 438 L 1191 439 L 1191 440 L 1190 441 L 1190 442 L 1189 443 L 1189 445 L 1188 446 L 1188 447 L 1187 448 L 1187 449 L 1186 450 L 1186 455 L 1185 456 L 1185 458 L 1184 459 L 1184 463 L 1183 464 L 1183 469 L 1182 470 L 1182 482 L 1181 483 L 1181 488 L 1182 489 L 1182 500 L 1183 501 L 1183 506 L 1184 507 L 1184 510 L 1185 511 L 1185 513 L 1186 514 L 1186 518 L 1187 519 L 1187 521 L 1188 522 L 1188 523 L 1189 524 L 1189 526 L 1190 527 L 1190 528 L 1192 530 L 1192 531 L 1194 533 L 1194 534 L 1196 536 L 1196 538 L 1202 544 L 1202 545 L 1207 550 L 1208 550 L 1212 554 L 1213 554 L 1218 559 L 1219 559 L 1220 560 L 1222 560 L 1223 561 L 1224 561 L 1225 562 L 1226 562 L 1228 564 L 1229 564 L 1230 565 L 1231 565 L 1232 566 L 1234 566 L 1235 567 L 1236 567 L 1237 568 L 1238 568 L 1239 569 L 1241 569 L 1242 570 L 1244 570 L 1245 571 L 1250 571 L 1251 572 L 1253 572 L 1254 573 L 1258 573 L 1259 574 L 1262 574 L 1263 575 L 1268 575 L 1269 576 L 1275 576 L 1276 577 L 1285 577 L 1286 578 L 1485 578 L 1486 579 L 1491 579 L 1492 580 L 1495 580 L 1496 581 L 1499 581 L 1500 582 L 1501 582 L 1503 584 L 1504 584 L 1507 587 L 1507 588 L 1508 589 L 1508 590 L 1509 591 L 1509 593 L 1510 594 L 1510 607 L 1509 608 L 1509 610 L 1508 611 L 1508 613 L 1503 618 L 1502 618 L 1501 619 L 1500 619 L 1499 620 L 1498 620 L 1496 622 L 1493 622 L 1492 623 L 1488 623 L 1487 624 L 1233 624 L 1231 626 L 1231 627 L 1228 630 L 1228 631 L 1227 632 L 1227 633 L 1222 638 L 1222 639 L 1219 642 L 1219 643 L 1216 646 L 1216 647 L 1213 650 L 1213 651 L 1207 657 L 1207 659 L 1204 662 L 1204 663 L 1197 670 L 1197 671 L 1196 672 L 1196 673 L 1191 678 L 1191 679 L 1187 683 L 1187 684 L 1186 685 L 1186 686 L 1182 690 L 1182 691 L 1178 695 L 1178 696 L 1175 699 L 1175 700 L 1172 703 L 1172 704 L 1170 706 L 1170 707 L 1478 707 L 1479 706 L 1504 706 L 1505 705 L 1511 705 L 1512 704 L 1516 704 L 1517 703 L 1522 703 L 1523 702 L 1526 702 L 1527 701 L 1529 701 L 1530 700 L 1533 700 L 1534 699 L 1537 699 L 1538 698 L 1539 698 L 1540 697 L 1542 697 L 1543 696 L 1546 696 L 1547 695 L 1549 695 L 1550 694 L 1551 694 L 1552 693 L 1554 693 L 1555 692 L 1556 692 L 1557 691 L 1558 691 L 1560 689 L 1561 689 L 1563 687 L 1564 687 L 1565 686 L 1566 686 L 1567 685 L 1568 685 L 1570 683 L 1571 683 L 1574 680 L 1575 680 L 1588 667 L 1588 666 L 1590 664 L 1590 663 L 1592 661 L 1592 660 L 1594 658 L 1594 657 L 1595 656 L 1595 655 L 1597 653 L 1597 652 L 1598 651 L 1598 650 L 1599 649 L 1599 648 L 1600 647 L 1600 644 L 1601 643 L 1601 641 L 1602 640 L 1602 638 L 1603 637 L 1603 634 L 1604 633 L 1604 631 L 1605 630 L 1605 626 L 1606 625 L 1606 620 L 1607 619 L 1607 606 L 1608 605 L 1608 598 L 1607 597 L 1607 587 L 1606 586 L 1606 582 L 1605 581 L 1605 577 L 1604 576 L 1604 573 L 1603 572 L 1603 571 L 1602 570 L 1602 568 L 1601 567 L 1601 566 L 1600 565 L 1600 563 L 1599 562 L 1599 561 L 1598 560 L 1598 559 L 1597 558 L 1597 557 L 1596 556 L 1596 555 L 1594 553 L 1594 552 L 1593 552 L 1591 550 L 1591 549 L 1590 548 L 1590 547 L 1584 541 L 1583 541 L 1577 535 L 1576 535 L 1574 533 L 1573 533 L 1571 531 L 1569 531 L 1568 530 L 1567 530 L 1565 528 L 1564 528 L 1563 527 L 1561 527 L 1560 526 L 1559 526 L 1557 524 L 1555 524 L 1554 523 L 1552 523 L 1551 522 L 1550 522 L 1549 521 L 1547 521 L 1546 520 L 1540 520 L 1539 519 L 1537 519 L 1536 518 L 1532 518 L 1531 517 L 1528 517 L 1527 516 L 1521 516 L 1520 515 L 1513 515 L 1512 514 L 1500 514 L 1499 513 L 1301 513 L 1300 512 L 1296 512 L 1295 511 L 1293 511 L 1292 510 L 1289 510 L 1287 508 L 1286 508 L 1281 503 L 1281 502 L 1280 501 L 1280 500 L 1279 499 L 1279 498 L 1278 497 L 1278 485 L 1279 484 L 1279 483 L 1280 482 L 1280 481 L 1281 480 L 1281 479 L 1283 477 L 1284 477 L 1287 474 L 1288 474 L 1289 473 L 1290 473 L 1291 472 L 1293 472 L 1294 471 L 1297 471 L 1298 470 L 1303 470 L 1304 469 L 1535 469 L 1538 466 L 1538 465 L 1541 462 L 1541 461 L 1544 458 L 1544 457 L 1545 456 L 1546 456 L 1547 455 L 1547 454 L 1548 453 L 1548 452 L 1550 450 L 1550 449 L 1556 443 L 1556 442 L 1558 440 L 1558 438 L 1560 436 L 1561 436 L 1562 435 L 1562 434 L 1565 431 L 1565 430 L 1568 427 L 1568 426 L 1570 424 L 1570 423 L 1574 419 L 1574 418 L 1579 413 L 1579 411 L 1582 408 L 1582 407 L 1589 400 L 1589 399 L 1590 398 L 1590 397 L 1591 396 L 1591 395 L 1592 394 L 1593 394 L 1594 393 L 1594 392 L 1597 389 L 1597 388 L 1599 386 L 1598 385 Z" fill="#ff2900"/><path d="M 910 385 L 909 386 L 899 386 L 898 387 L 892 387 L 891 388 L 885 388 L 884 389 L 880 389 L 879 390 L 875 390 L 874 391 L 871 391 L 870 392 L 867 392 L 866 393 L 864 393 L 863 394 L 860 394 L 859 395 L 857 395 L 856 396 L 851 396 L 850 397 L 848 397 L 847 398 L 845 398 L 844 399 L 843 399 L 842 400 L 841 400 L 840 401 L 838 401 L 837 402 L 836 402 L 835 403 L 833 403 L 831 405 L 830 405 L 829 406 L 826 406 L 825 407 L 824 407 L 823 408 L 822 408 L 821 409 L 820 409 L 819 410 L 818 410 L 816 412 L 815 412 L 814 413 L 813 413 L 810 416 L 808 416 L 807 417 L 806 417 L 805 418 L 804 418 L 800 422 L 799 422 L 797 424 L 796 424 L 793 427 L 792 427 L 789 430 L 788 430 L 780 438 L 779 438 L 776 441 L 776 442 L 768 450 L 768 451 L 765 454 L 765 455 L 760 460 L 760 462 L 759 463 L 759 464 L 757 466 L 757 467 L 756 468 L 755 468 L 755 469 L 754 470 L 754 471 L 753 472 L 753 473 L 752 474 L 752 475 L 750 477 L 750 479 L 749 480 L 749 482 L 748 483 L 748 484 L 747 485 L 747 486 L 746 487 L 746 488 L 745 489 L 745 491 L 744 492 L 744 493 L 743 494 L 743 496 L 742 497 L 742 499 L 741 500 L 741 502 L 740 503 L 740 506 L 739 507 L 739 514 L 738 515 L 738 520 L 737 521 L 737 527 L 736 528 L 736 558 L 737 559 L 737 565 L 738 566 L 738 571 L 739 572 L 739 579 L 740 580 L 740 583 L 741 584 L 741 586 L 742 587 L 742 589 L 743 590 L 743 592 L 744 593 L 744 594 L 745 595 L 745 597 L 746 598 L 746 600 L 747 601 L 747 602 L 749 604 L 749 607 L 750 608 L 750 609 L 751 610 L 751 611 L 752 612 L 752 613 L 753 614 L 753 615 L 755 617 L 755 618 L 756 619 L 756 620 L 757 621 L 757 622 L 760 625 L 760 627 L 762 629 L 762 630 L 764 632 L 764 633 L 765 633 L 767 635 L 767 636 L 770 639 L 770 640 L 772 642 L 772 643 L 773 644 L 774 644 L 780 650 L 780 651 L 783 654 L 784 654 L 794 664 L 796 664 L 799 667 L 800 667 L 801 668 L 801 669 L 802 670 L 803 670 L 805 672 L 806 672 L 808 674 L 809 674 L 810 675 L 811 675 L 812 676 L 813 676 L 815 678 L 816 678 L 817 679 L 818 679 L 819 680 L 820 680 L 823 683 L 824 683 L 825 684 L 826 684 L 827 685 L 830 685 L 832 687 L 834 687 L 835 688 L 836 688 L 837 689 L 838 689 L 839 690 L 841 690 L 843 692 L 845 692 L 846 693 L 847 693 L 848 694 L 850 694 L 851 695 L 853 695 L 854 696 L 858 696 L 859 697 L 862 697 L 863 698 L 864 698 L 865 699 L 868 699 L 869 700 L 872 700 L 873 701 L 875 701 L 876 702 L 880 702 L 881 703 L 885 703 L 886 704 L 890 704 L 891 705 L 897 705 L 898 706 L 921 706 L 922 707 L 1091 707 L 1094 704 L 1094 703 L 1097 700 L 1097 699 L 1101 695 L 1101 694 L 1103 692 L 1103 691 L 1106 688 L 1106 687 L 1111 682 L 1111 681 L 1112 680 L 1112 679 L 1119 672 L 1119 671 L 1122 668 L 1122 666 L 1124 664 L 1125 664 L 1125 663 L 1128 660 L 1128 659 L 1131 656 L 1131 655 L 1134 652 L 1134 651 L 1137 648 L 1137 647 L 1142 642 L 1142 641 L 1143 640 L 1143 639 L 1147 635 L 1147 634 L 1148 633 L 1149 633 L 1150 632 L 1150 631 L 1153 628 L 1153 626 L 1154 625 L 1154 624 L 917 624 L 916 623 L 910 623 L 909 622 L 904 622 L 903 621 L 901 621 L 900 620 L 897 620 L 896 619 L 894 619 L 893 618 L 891 618 L 890 617 L 889 617 L 888 616 L 886 616 L 885 615 L 883 615 L 882 614 L 880 614 L 879 613 L 878 613 L 877 612 L 876 612 L 875 611 L 874 611 L 871 608 L 870 608 L 868 606 L 867 606 L 865 604 L 863 604 L 862 603 L 862 602 L 853 593 L 852 593 L 851 592 L 851 591 L 850 590 L 850 589 L 848 587 L 848 586 L 846 584 L 846 583 L 845 583 L 844 582 L 844 581 L 843 580 L 843 579 L 842 578 L 842 577 L 841 576 L 841 573 L 840 572 L 840 570 L 839 569 L 839 567 L 838 566 L 838 563 L 837 562 L 837 559 L 836 558 L 836 537 L 837 536 L 837 532 L 838 531 L 838 529 L 839 528 L 839 525 L 840 524 L 840 523 L 841 522 L 841 519 L 842 518 L 842 517 L 843 516 L 843 515 L 844 514 L 844 513 L 845 512 L 845 511 L 849 507 L 849 506 L 851 504 L 851 502 L 855 498 L 856 498 L 866 488 L 868 488 L 870 486 L 871 486 L 874 483 L 875 483 L 876 482 L 877 482 L 878 481 L 879 481 L 880 480 L 881 480 L 882 479 L 883 479 L 885 477 L 889 477 L 890 476 L 892 476 L 893 475 L 895 475 L 896 474 L 898 474 L 899 473 L 902 473 L 903 472 L 906 472 L 907 471 L 912 471 L 913 470 L 921 470 L 922 469 L 1091 469 L 1095 465 L 1095 464 L 1098 461 L 1098 460 L 1101 457 L 1101 456 L 1104 453 L 1104 452 L 1107 449 L 1107 448 L 1111 444 L 1111 443 L 1113 441 L 1113 440 L 1119 434 L 1119 433 L 1122 430 L 1122 428 L 1128 422 L 1128 421 L 1131 418 L 1131 417 L 1133 415 L 1133 414 L 1137 410 L 1137 409 L 1140 406 L 1140 405 L 1143 402 L 1143 401 L 1145 399 L 1145 398 L 1152 391 L 1152 390 L 1153 389 L 1153 388 L 1154 387 L 1154 385 Z" fill="#ff2900"/><path d="M 904 204 L 903 205 L 899 205 L 898 206 L 895 206 L 894 207 L 893 207 L 892 208 L 891 208 L 890 209 L 886 209 L 884 211 L 883 211 L 882 212 L 881 212 L 879 214 L 878 214 L 875 217 L 874 217 L 874 218 L 873 219 L 872 219 L 865 226 L 865 227 L 863 229 L 863 230 L 862 231 L 862 232 L 860 234 L 860 235 L 859 236 L 531 236 L 530 237 L 519 237 L 518 238 L 511 238 L 510 239 L 502 239 L 501 240 L 493 240 L 492 241 L 488 241 L 487 242 L 484 242 L 483 243 L 480 243 L 479 244 L 476 244 L 475 245 L 472 245 L 471 246 L 468 246 L 467 247 L 465 247 L 464 248 L 462 248 L 461 249 L 459 249 L 458 250 L 454 250 L 453 251 L 451 251 L 450 252 L 448 252 L 447 253 L 446 253 L 445 254 L 443 254 L 442 255 L 440 255 L 439 256 L 438 256 L 437 257 L 436 257 L 435 258 L 434 258 L 433 259 L 431 259 L 430 260 L 429 260 L 428 261 L 425 261 L 424 262 L 423 262 L 422 263 L 421 263 L 420 264 L 418 264 L 417 265 L 416 265 L 414 267 L 413 267 L 412 268 L 411 268 L 410 269 L 409 269 L 408 270 L 407 270 L 406 271 L 405 271 L 404 272 L 402 272 L 400 274 L 399 274 L 398 275 L 397 275 L 395 277 L 394 277 L 392 279 L 391 279 L 390 280 L 389 280 L 388 281 L 387 281 L 385 283 L 384 283 L 383 284 L 382 284 L 380 286 L 379 286 L 377 288 L 376 288 L 375 289 L 375 290 L 374 291 L 373 291 L 372 292 L 370 292 L 368 294 L 367 294 L 361 300 L 360 300 L 358 302 L 357 302 L 356 303 L 355 303 L 354 304 L 354 305 L 352 307 L 351 307 L 346 312 L 345 312 L 338 319 L 337 319 L 337 320 L 334 323 L 333 323 L 323 333 L 323 334 L 313 344 L 313 345 L 310 348 L 310 349 L 303 356 L 303 357 L 302 358 L 302 359 L 300 361 L 300 362 L 295 367 L 295 368 L 292 371 L 292 374 L 291 375 L 290 375 L 289 376 L 289 377 L 288 378 L 288 379 L 286 381 L 286 382 L 284 384 L 284 385 L 282 387 L 282 388 L 281 389 L 281 391 L 280 392 L 280 393 L 277 396 L 277 397 L 276 398 L 276 399 L 275 400 L 275 401 L 274 402 L 274 403 L 273 404 L 273 405 L 272 406 L 272 407 L 271 408 L 271 410 L 270 411 L 270 412 L 269 413 L 269 414 L 267 416 L 267 417 L 266 418 L 266 419 L 265 420 L 265 422 L 264 423 L 264 424 L 263 425 L 263 426 L 262 427 L 262 428 L 261 429 L 261 433 L 260 434 L 260 435 L 259 436 L 259 437 L 258 438 L 258 440 L 257 441 L 257 443 L 256 444 L 256 445 L 255 446 L 255 448 L 254 449 L 254 450 L 253 451 L 253 454 L 252 455 L 252 456 L 312 456 L 313 455 L 313 454 L 314 453 L 314 451 L 315 450 L 315 449 L 316 448 L 316 447 L 317 446 L 317 445 L 318 444 L 318 443 L 319 442 L 319 441 L 320 440 L 320 439 L 321 438 L 321 436 L 322 435 L 322 433 L 324 431 L 324 430 L 325 429 L 325 428 L 326 427 L 326 426 L 328 424 L 328 423 L 329 422 L 329 421 L 331 419 L 331 418 L 332 417 L 332 416 L 333 415 L 333 414 L 334 413 L 334 412 L 336 410 L 336 409 L 338 407 L 338 406 L 342 402 L 342 400 L 344 398 L 344 397 L 350 391 L 350 390 L 352 388 L 352 387 L 360 379 L 360 378 L 363 375 L 363 374 L 364 373 L 365 373 L 372 366 L 372 365 L 374 363 L 375 363 L 382 356 L 383 356 L 384 355 L 384 354 L 386 352 L 387 352 L 389 350 L 390 350 L 397 343 L 398 343 L 399 342 L 400 342 L 401 341 L 402 341 L 406 337 L 407 337 L 409 335 L 410 335 L 412 333 L 413 333 L 414 332 L 415 332 L 417 330 L 418 330 L 420 328 L 421 328 L 422 327 L 423 327 L 424 326 L 425 326 L 428 323 L 429 323 L 430 322 L 431 322 L 432 321 L 434 321 L 435 320 L 436 320 L 437 319 L 438 319 L 439 318 L 440 318 L 441 317 L 442 317 L 443 316 L 444 316 L 445 315 L 446 315 L 447 314 L 448 314 L 449 313 L 450 313 L 451 312 L 452 312 L 453 311 L 456 311 L 457 310 L 459 310 L 460 309 L 462 309 L 463 308 L 464 308 L 465 307 L 466 307 L 467 306 L 469 306 L 470 305 L 472 305 L 473 304 L 475 304 L 476 303 L 478 303 L 479 302 L 481 302 L 482 301 L 485 301 L 486 300 L 492 300 L 493 299 L 496 299 L 497 298 L 499 298 L 500 297 L 504 297 L 505 296 L 510 296 L 511 295 L 517 295 L 518 294 L 524 294 L 525 293 L 535 293 L 536 292 L 859 292 L 861 294 L 861 295 L 862 296 L 862 297 L 864 299 L 864 300 L 866 302 L 866 303 L 874 311 L 875 311 L 877 313 L 878 313 L 880 315 L 881 315 L 882 316 L 883 316 L 885 318 L 886 318 L 887 319 L 888 319 L 889 320 L 890 320 L 891 321 L 895 321 L 896 322 L 900 322 L 901 323 L 905 323 L 906 324 L 919 324 L 920 323 L 925 323 L 926 322 L 928 322 L 929 321 L 934 321 L 935 320 L 936 320 L 937 319 L 939 319 L 940 318 L 941 318 L 943 316 L 944 316 L 947 313 L 948 313 L 950 311 L 951 311 L 952 310 L 953 310 L 953 309 L 954 308 L 955 308 L 955 307 L 959 303 L 959 302 L 964 297 L 964 296 L 965 295 L 965 294 L 966 293 L 966 291 L 968 289 L 968 287 L 969 286 L 969 284 L 970 283 L 970 281 L 971 280 L 971 278 L 972 277 L 972 272 L 973 271 L 973 256 L 972 255 L 972 251 L 971 250 L 971 248 L 970 247 L 970 244 L 969 243 L 969 242 L 968 241 L 968 240 L 967 239 L 967 238 L 966 237 L 966 234 L 964 232 L 964 231 L 960 227 L 960 226 L 955 221 L 955 220 L 954 220 L 951 217 L 950 217 L 947 214 L 946 214 L 943 211 L 942 211 L 941 210 L 940 210 L 939 209 L 936 209 L 935 208 L 934 208 L 933 207 L 931 207 L 930 206 L 927 206 L 926 205 L 922 205 L 921 204 Z" fill="#ff2900"/><path d="M 518 0 L 517 1 L 495 1 L 494 2 L 487 2 L 486 3 L 478 3 L 477 4 L 471 4 L 470 5 L 466 5 L 465 6 L 460 6 L 459 7 L 455 7 L 454 8 L 450 8 L 449 9 L 445 9 L 444 10 L 440 10 L 439 11 L 432 11 L 431 12 L 428 12 L 427 13 L 424 13 L 423 14 L 420 14 L 419 15 L 416 15 L 415 16 L 413 16 L 412 17 L 409 17 L 408 18 L 406 18 L 405 19 L 402 19 L 401 20 L 399 20 L 398 21 L 394 21 L 393 22 L 390 22 L 389 23 L 387 23 L 386 24 L 385 24 L 384 25 L 382 25 L 381 26 L 378 26 L 377 27 L 375 27 L 374 28 L 373 28 L 372 29 L 370 29 L 369 30 L 367 30 L 366 31 L 365 31 L 364 32 L 360 32 L 359 33 L 357 33 L 356 34 L 355 34 L 354 35 L 353 35 L 352 36 L 351 36 L 350 37 L 348 37 L 347 38 L 346 38 L 345 39 L 344 39 L 343 40 L 342 40 L 341 41 L 340 41 L 339 42 L 335 42 L 334 43 L 333 43 L 332 44 L 331 44 L 330 45 L 329 45 L 328 46 L 327 46 L 326 47 L 324 47 L 322 49 L 321 49 L 320 50 L 319 50 L 318 51 L 316 51 L 315 52 L 314 52 L 313 53 L 311 53 L 310 54 L 309 54 L 308 55 L 307 55 L 306 56 L 305 56 L 304 57 L 303 57 L 301 59 L 300 59 L 299 60 L 298 60 L 296 62 L 295 62 L 294 63 L 292 63 L 291 64 L 290 64 L 289 65 L 288 65 L 287 66 L 286 66 L 285 67 L 284 67 L 282 69 L 281 69 L 279 71 L 278 71 L 277 72 L 276 72 L 275 73 L 274 73 L 273 74 L 272 74 L 270 76 L 269 76 L 267 78 L 266 78 L 265 79 L 264 79 L 263 80 L 262 80 L 258 84 L 256 84 L 255 85 L 254 85 L 252 87 L 251 87 L 248 90 L 247 90 L 245 92 L 244 92 L 242 94 L 241 94 L 240 95 L 239 95 L 236 98 L 235 98 L 233 100 L 232 100 L 227 105 L 225 105 L 222 108 L 221 108 L 215 114 L 214 114 L 213 115 L 212 115 L 210 117 L 209 117 L 209 118 L 207 120 L 206 120 L 202 124 L 201 124 L 197 128 L 196 128 L 190 134 L 189 134 L 182 141 L 181 141 L 165 157 L 164 157 L 163 158 L 163 159 L 157 165 L 157 166 L 156 167 L 155 167 L 147 175 L 147 176 L 145 178 L 144 178 L 144 179 L 139 184 L 139 185 L 138 186 L 137 186 L 137 187 L 133 191 L 133 192 L 125 200 L 125 201 L 124 202 L 124 203 L 120 207 L 120 208 L 119 209 L 118 209 L 117 210 L 117 211 L 115 213 L 115 214 L 114 215 L 114 216 L 108 222 L 108 223 L 105 226 L 105 228 L 101 232 L 101 233 L 99 235 L 99 236 L 97 238 L 97 239 L 94 242 L 94 244 L 92 246 L 92 247 L 88 251 L 88 252 L 86 254 L 86 255 L 85 256 L 85 257 L 84 258 L 84 260 L 83 261 L 82 261 L 82 262 L 81 263 L 81 264 L 79 266 L 79 267 L 78 268 L 78 269 L 75 272 L 75 273 L 74 274 L 74 275 L 73 276 L 73 278 L 72 279 L 72 280 L 70 282 L 70 283 L 68 285 L 68 286 L 67 287 L 67 288 L 66 289 L 66 290 L 64 292 L 64 294 L 63 295 L 63 297 L 62 298 L 62 299 L 61 300 L 61 301 L 59 303 L 59 304 L 58 305 L 58 306 L 57 307 L 57 308 L 56 309 L 56 310 L 55 311 L 55 312 L 53 314 L 53 318 L 52 319 L 52 320 L 51 321 L 51 322 L 49 324 L 49 326 L 48 327 L 48 328 L 47 329 L 47 330 L 46 331 L 46 332 L 45 333 L 45 334 L 44 335 L 44 337 L 43 338 L 43 339 L 42 340 L 42 343 L 41 344 L 41 345 L 40 346 L 40 348 L 39 349 L 39 350 L 38 351 L 38 353 L 37 354 L 37 355 L 36 356 L 36 357 L 35 358 L 35 360 L 34 361 L 34 363 L 33 364 L 33 365 L 32 366 L 32 370 L 31 371 L 31 373 L 30 374 L 30 376 L 29 377 L 29 379 L 28 380 L 28 382 L 27 383 L 27 384 L 26 385 L 26 387 L 25 388 L 25 390 L 24 391 L 24 394 L 23 395 L 23 397 L 22 398 L 22 401 L 21 402 L 21 406 L 20 407 L 20 410 L 19 411 L 19 414 L 18 415 L 18 418 L 17 419 L 17 421 L 16 422 L 16 426 L 15 427 L 15 429 L 14 430 L 14 435 L 13 436 L 13 439 L 12 440 L 12 444 L 11 445 L 11 454 L 10 455 L 10 459 L 9 460 L 9 465 L 8 466 L 8 471 L 7 472 L 7 479 L 6 480 L 6 488 L 5 489 L 5 497 L 4 498 L 4 508 L 3 509 L 3 525 L 2 526 L 2 569 L 3 570 L 3 575 L 239 575 L 240 576 L 240 582 L 241 583 L 241 589 L 242 590 L 242 596 L 243 597 L 243 602 L 244 603 L 244 606 L 245 607 L 245 611 L 246 612 L 246 615 L 247 616 L 247 619 L 248 620 L 248 623 L 249 624 L 249 626 L 250 627 L 250 633 L 251 634 L 251 636 L 252 637 L 252 639 L 253 640 L 253 642 L 254 643 L 254 644 L 255 645 L 255 647 L 256 648 L 256 650 L 257 651 L 257 653 L 258 654 L 258 655 L 259 656 L 259 658 L 260 659 L 260 660 L 261 661 L 261 664 L 262 665 L 262 667 L 263 668 L 263 669 L 264 670 L 264 671 L 265 672 L 265 674 L 267 676 L 267 677 L 268 678 L 268 679 L 269 680 L 269 681 L 270 682 L 270 683 L 271 684 L 271 686 L 272 687 L 272 688 L 273 689 L 273 690 L 274 691 L 274 692 L 275 693 L 275 694 L 276 695 L 276 696 L 279 699 L 279 700 L 280 701 L 280 702 L 281 703 L 281 705 L 283 707 L 283 708 L 284 709 L 284 710 L 286 712 L 286 713 L 288 715 L 288 716 L 292 720 L 292 722 L 293 723 L 293 724 L 297 728 L 297 729 L 300 732 L 300 733 L 302 735 L 302 736 L 305 739 L 305 740 L 310 745 L 310 746 L 315 751 L 315 752 L 321 758 L 322 758 L 323 759 L 323 760 L 324 761 L 324 762 L 330 768 L 331 768 L 333 770 L 333 771 L 336 774 L 337 774 L 342 779 L 343 779 L 344 780 L 344 781 L 345 781 L 352 788 L 353 788 L 356 791 L 357 791 L 360 794 L 361 794 L 366 799 L 368 799 L 370 801 L 371 801 L 376 806 L 377 806 L 379 808 L 380 808 L 381 809 L 382 809 L 383 810 L 384 810 L 386 812 L 387 812 L 389 814 L 390 814 L 391 815 L 392 815 L 393 816 L 394 816 L 397 819 L 398 819 L 399 820 L 401 820 L 402 821 L 403 821 L 404 822 L 405 822 L 407 824 L 408 824 L 409 825 L 410 825 L 411 826 L 412 826 L 413 827 L 414 827 L 415 828 L 416 828 L 417 829 L 418 829 L 419 830 L 420 830 L 421 831 L 424 831 L 425 832 L 426 832 L 428 834 L 430 834 L 431 835 L 433 835 L 434 836 L 435 836 L 436 837 L 437 837 L 438 838 L 439 838 L 440 839 L 442 839 L 443 840 L 445 840 L 446 841 L 449 841 L 450 842 L 452 842 L 453 843 L 455 843 L 456 844 L 458 844 L 459 845 L 461 845 L 462 846 L 465 846 L 466 847 L 468 847 L 469 848 L 471 848 L 472 849 L 475 849 L 476 850 L 479 850 L 480 851 L 487 851 L 488 852 L 492 852 L 493 853 L 497 853 L 498 854 L 502 854 L 503 855 L 509 855 L 510 856 L 516 856 L 517 857 L 528 857 L 529 858 L 859 858 L 860 859 L 860 860 L 864 864 L 864 866 L 865 867 L 865 868 L 869 872 L 870 872 L 874 876 L 874 877 L 875 877 L 878 880 L 879 880 L 881 882 L 882 882 L 883 883 L 885 883 L 886 884 L 887 884 L 888 885 L 889 885 L 890 886 L 892 886 L 893 887 L 894 887 L 895 888 L 898 888 L 899 889 L 904 889 L 905 890 L 921 890 L 922 889 L 926 889 L 927 888 L 930 888 L 931 887 L 933 887 L 934 886 L 935 886 L 936 885 L 937 885 L 938 884 L 939 884 L 940 883 L 942 883 L 943 882 L 944 882 L 946 880 L 947 880 L 950 877 L 951 877 L 960 868 L 960 867 L 963 864 L 963 863 L 965 861 L 965 860 L 966 859 L 966 857 L 967 856 L 967 855 L 968 854 L 968 852 L 970 850 L 970 847 L 971 846 L 971 844 L 972 843 L 972 839 L 973 838 L 973 823 L 972 822 L 972 817 L 971 816 L 971 813 L 970 812 L 970 811 L 969 810 L 969 808 L 968 807 L 968 805 L 967 804 L 967 803 L 966 802 L 966 800 L 964 798 L 964 797 L 962 795 L 962 794 L 960 792 L 960 791 L 959 791 L 955 787 L 955 786 L 952 783 L 951 783 L 949 781 L 948 781 L 947 780 L 946 780 L 944 778 L 943 778 L 942 777 L 941 777 L 940 776 L 939 776 L 938 775 L 937 775 L 936 774 L 935 774 L 934 773 L 933 773 L 932 772 L 930 772 L 929 771 L 926 771 L 925 770 L 900 770 L 899 771 L 897 771 L 896 772 L 894 772 L 893 773 L 891 773 L 890 774 L 889 774 L 888 775 L 887 775 L 886 776 L 885 776 L 883 778 L 882 778 L 881 779 L 880 779 L 879 780 L 878 780 L 877 781 L 876 781 L 874 783 L 874 784 L 873 785 L 872 785 L 864 793 L 864 795 L 862 797 L 862 798 L 861 799 L 861 800 L 860 801 L 524 801 L 523 800 L 517 800 L 516 799 L 511 799 L 510 798 L 506 798 L 505 797 L 500 797 L 499 796 L 497 796 L 496 795 L 493 795 L 492 794 L 489 794 L 488 793 L 485 793 L 484 792 L 482 792 L 481 791 L 476 791 L 475 790 L 473 790 L 472 789 L 470 789 L 469 788 L 468 788 L 467 787 L 465 787 L 464 786 L 463 786 L 462 785 L 460 785 L 459 784 L 457 784 L 455 782 L 453 782 L 452 781 L 451 781 L 450 780 L 447 780 L 446 779 L 445 779 L 444 778 L 443 778 L 442 777 L 441 777 L 440 776 L 439 776 L 438 775 L 437 775 L 435 773 L 434 773 L 433 772 L 432 772 L 431 771 L 430 771 L 429 770 L 427 770 L 425 768 L 424 768 L 423 767 L 422 767 L 420 765 L 419 765 L 418 764 L 417 764 L 413 760 L 411 760 L 410 759 L 409 759 L 408 758 L 407 758 L 401 752 L 400 752 L 398 750 L 397 750 L 396 749 L 395 749 L 390 744 L 389 744 L 382 737 L 381 737 L 361 717 L 361 716 L 352 707 L 352 706 L 350 704 L 350 703 L 347 700 L 347 699 L 342 694 L 342 692 L 340 690 L 340 689 L 337 686 L 337 685 L 335 683 L 335 682 L 333 680 L 333 679 L 332 678 L 332 677 L 331 676 L 331 675 L 330 674 L 330 673 L 328 671 L 328 670 L 327 669 L 327 668 L 324 665 L 324 664 L 323 663 L 323 662 L 322 661 L 322 659 L 321 658 L 321 656 L 320 655 L 320 654 L 319 653 L 319 652 L 318 651 L 318 650 L 317 649 L 317 648 L 316 647 L 316 646 L 315 645 L 315 644 L 314 643 L 314 641 L 313 640 L 313 639 L 312 638 L 312 636 L 311 635 L 311 632 L 310 631 L 310 629 L 309 628 L 309 626 L 308 625 L 308 623 L 307 622 L 307 620 L 306 619 L 306 617 L 305 616 L 305 614 L 304 613 L 304 611 L 303 610 L 303 607 L 302 606 L 302 604 L 301 603 L 301 600 L 300 599 L 300 589 L 299 588 L 299 584 L 298 583 L 298 576 L 297 575 L 297 567 L 296 566 L 296 528 L 297 527 L 297 519 L 61 519 L 60 518 L 60 515 L 61 514 L 61 495 L 62 494 L 62 487 L 63 486 L 63 480 L 64 479 L 64 474 L 65 473 L 65 468 L 66 467 L 66 462 L 67 461 L 67 457 L 68 456 L 68 452 L 69 451 L 69 448 L 70 447 L 70 444 L 71 443 L 71 439 L 72 438 L 72 432 L 73 431 L 73 428 L 74 427 L 74 425 L 75 424 L 75 421 L 76 420 L 76 417 L 77 416 L 77 415 L 78 414 L 78 411 L 79 410 L 79 408 L 80 407 L 80 405 L 81 404 L 81 402 L 82 401 L 82 396 L 83 395 L 83 394 L 84 393 L 84 391 L 85 390 L 85 388 L 86 387 L 86 385 L 88 383 L 88 381 L 89 380 L 89 378 L 90 377 L 90 375 L 91 374 L 91 373 L 92 372 L 92 370 L 93 369 L 93 366 L 94 365 L 94 364 L 95 363 L 95 362 L 96 361 L 96 359 L 97 358 L 97 357 L 98 356 L 98 355 L 99 354 L 99 353 L 100 352 L 100 351 L 101 350 L 101 349 L 102 348 L 102 346 L 103 345 L 103 343 L 104 342 L 104 341 L 105 340 L 105 339 L 106 338 L 106 337 L 107 336 L 107 335 L 108 334 L 108 333 L 109 332 L 109 331 L 110 330 L 110 329 L 112 327 L 112 326 L 113 325 L 113 322 L 115 320 L 115 319 L 116 318 L 116 317 L 117 316 L 117 315 L 118 314 L 118 313 L 121 310 L 121 309 L 122 308 L 122 307 L 123 306 L 123 305 L 124 304 L 124 302 L 126 300 L 126 299 L 128 297 L 128 296 L 129 295 L 129 294 L 131 292 L 131 291 L 133 289 L 133 288 L 134 287 L 134 286 L 135 285 L 135 284 L 136 283 L 136 282 L 140 278 L 140 277 L 142 275 L 142 274 L 144 272 L 144 271 L 145 270 L 145 269 L 148 266 L 148 265 L 150 263 L 150 262 L 154 258 L 154 257 L 155 256 L 155 255 L 157 253 L 157 252 L 164 245 L 164 244 L 165 243 L 165 242 L 167 240 L 167 239 L 168 238 L 169 238 L 172 235 L 172 234 L 176 230 L 176 229 L 182 223 L 182 222 L 192 212 L 192 211 L 215 188 L 216 188 L 225 179 L 226 179 L 231 174 L 232 174 L 241 165 L 243 165 L 248 160 L 249 160 L 249 159 L 251 157 L 252 157 L 254 155 L 255 155 L 256 154 L 257 154 L 262 149 L 263 149 L 265 147 L 266 147 L 268 145 L 269 145 L 271 143 L 272 143 L 274 141 L 275 141 L 277 139 L 278 139 L 282 135 L 283 135 L 284 134 L 285 134 L 286 133 L 287 133 L 288 132 L 289 132 L 292 129 L 293 129 L 294 128 L 295 128 L 297 126 L 298 126 L 300 124 L 301 124 L 302 123 L 303 123 L 304 122 L 305 122 L 306 121 L 307 121 L 308 120 L 309 120 L 312 117 L 313 117 L 314 116 L 315 116 L 317 114 L 319 114 L 320 113 L 321 113 L 322 112 L 323 112 L 324 111 L 325 111 L 326 110 L 327 110 L 328 109 L 329 109 L 330 108 L 331 108 L 333 106 L 334 106 L 335 105 L 336 105 L 337 104 L 338 104 L 339 103 L 341 103 L 342 102 L 343 102 L 344 101 L 346 101 L 347 100 L 348 100 L 349 99 L 350 99 L 351 98 L 352 98 L 353 97 L 354 97 L 355 96 L 356 96 L 357 95 L 358 95 L 359 94 L 361 94 L 362 93 L 364 93 L 365 92 L 367 92 L 368 91 L 370 91 L 371 90 L 372 90 L 373 89 L 374 89 L 375 88 L 376 88 L 377 87 L 379 87 L 380 86 L 381 86 L 382 85 L 384 85 L 385 84 L 386 84 L 387 83 L 389 83 L 390 82 L 394 82 L 395 81 L 397 81 L 398 80 L 400 80 L 401 79 L 403 79 L 404 78 L 405 78 L 406 77 L 408 77 L 409 76 L 412 76 L 413 75 L 415 75 L 416 74 L 418 74 L 419 73 L 422 73 L 423 72 L 428 72 L 429 71 L 432 71 L 433 70 L 435 70 L 436 69 L 440 69 L 441 68 L 444 68 L 445 67 L 448 67 L 449 66 L 452 66 L 453 65 L 456 65 L 457 64 L 462 64 L 463 63 L 467 63 L 468 62 L 472 62 L 473 61 L 485 61 L 486 60 L 493 60 L 494 59 L 500 59 L 501 58 L 510 58 L 511 57 L 524 57 L 525 56 L 587 56 L 588 57 L 588 116 L 587 117 L 530 117 L 529 118 L 515 118 L 514 119 L 506 119 L 505 120 L 498 120 L 497 121 L 491 121 L 490 122 L 485 122 L 484 123 L 479 123 L 478 124 L 474 124 L 473 125 L 464 125 L 463 126 L 460 126 L 459 127 L 456 127 L 455 128 L 451 128 L 450 129 L 448 129 L 447 130 L 444 130 L 443 131 L 441 131 L 440 132 L 437 132 L 436 133 L 434 133 L 433 134 L 430 134 L 429 135 L 427 135 L 426 136 L 421 136 L 420 137 L 419 137 L 418 138 L 416 138 L 415 139 L 414 139 L 413 140 L 410 140 L 409 141 L 407 141 L 405 143 L 403 143 L 402 144 L 400 144 L 399 145 L 398 145 L 397 146 L 394 146 L 393 147 L 391 147 L 390 148 L 388 148 L 387 149 L 386 149 L 385 150 L 384 150 L 383 151 L 382 151 L 381 152 L 380 152 L 379 153 L 378 153 L 377 154 L 375 154 L 373 156 L 371 156 L 370 157 L 368 157 L 367 158 L 366 158 L 365 159 L 364 159 L 363 160 L 362 160 L 361 161 L 360 161 L 359 162 L 358 162 L 357 163 L 356 163 L 355 164 L 354 164 L 352 166 L 351 166 L 350 167 L 348 167 L 347 168 L 346 168 L 345 169 L 344 169 L 342 171 L 341 171 L 340 172 L 339 172 L 338 173 L 337 173 L 335 175 L 334 175 L 332 177 L 330 177 L 329 178 L 328 178 L 326 180 L 325 180 L 322 183 L 321 183 L 319 185 L 318 185 L 317 186 L 316 186 L 314 188 L 313 188 L 311 190 L 310 190 L 308 192 L 307 192 L 305 194 L 304 194 L 300 198 L 298 198 L 295 201 L 294 201 L 288 207 L 287 207 L 285 209 L 283 209 L 283 210 L 282 211 L 281 211 L 281 212 L 280 213 L 279 213 L 274 218 L 273 218 L 268 223 L 267 223 L 259 231 L 258 231 L 233 256 L 233 257 L 226 264 L 226 265 L 219 272 L 219 273 L 217 275 L 217 276 L 210 283 L 210 284 L 209 285 L 209 286 L 207 288 L 207 289 L 201 295 L 201 296 L 199 298 L 199 299 L 198 300 L 198 301 L 195 304 L 195 305 L 193 307 L 193 308 L 191 310 L 191 311 L 188 314 L 188 316 L 187 317 L 187 318 L 185 320 L 185 321 L 182 324 L 182 325 L 180 327 L 180 328 L 179 329 L 179 330 L 178 331 L 178 332 L 177 333 L 177 334 L 176 335 L 176 336 L 174 338 L 174 339 L 173 340 L 173 341 L 172 342 L 172 343 L 170 345 L 170 346 L 169 347 L 169 348 L 168 349 L 168 350 L 167 351 L 167 353 L 166 354 L 166 355 L 165 356 L 165 357 L 164 358 L 164 359 L 163 360 L 163 361 L 162 362 L 162 363 L 160 365 L 160 366 L 159 367 L 159 368 L 158 369 L 158 371 L 157 372 L 157 374 L 156 375 L 156 376 L 155 377 L 155 379 L 154 380 L 154 381 L 153 382 L 153 383 L 152 384 L 152 385 L 151 386 L 151 388 L 150 389 L 150 390 L 149 391 L 149 393 L 148 394 L 148 395 L 147 396 L 147 398 L 146 399 L 146 403 L 145 404 L 145 405 L 144 406 L 144 408 L 143 409 L 143 410 L 142 411 L 142 413 L 141 414 L 141 416 L 140 417 L 140 419 L 139 420 L 139 422 L 138 423 L 138 425 L 137 426 L 137 428 L 136 429 L 136 435 L 135 436 L 135 438 L 134 439 L 134 442 L 133 443 L 133 446 L 132 447 L 132 449 L 131 450 L 131 453 L 130 454 L 130 456 L 188 456 L 189 455 L 189 453 L 190 452 L 190 449 L 191 448 L 191 446 L 192 445 L 192 443 L 193 442 L 193 440 L 194 439 L 194 436 L 195 435 L 195 434 L 196 433 L 196 431 L 197 430 L 197 426 L 198 425 L 198 423 L 199 422 L 199 420 L 200 419 L 200 418 L 201 417 L 201 416 L 202 415 L 202 413 L 203 412 L 203 411 L 204 410 L 204 408 L 205 407 L 205 406 L 206 405 L 206 404 L 207 403 L 207 400 L 208 399 L 208 397 L 209 396 L 209 395 L 211 393 L 211 392 L 212 391 L 212 390 L 213 389 L 213 388 L 214 387 L 214 386 L 215 385 L 215 384 L 216 383 L 216 382 L 217 381 L 217 379 L 218 378 L 218 377 L 219 376 L 219 375 L 221 373 L 221 372 L 222 371 L 222 370 L 223 369 L 223 368 L 224 367 L 224 366 L 226 364 L 226 363 L 228 361 L 228 359 L 229 358 L 229 357 L 230 356 L 230 355 L 233 352 L 233 351 L 235 349 L 235 348 L 237 346 L 237 345 L 238 344 L 238 343 L 240 341 L 240 340 L 242 338 L 242 337 L 244 335 L 244 334 L 248 330 L 248 329 L 249 328 L 249 327 L 251 325 L 251 324 L 258 317 L 258 316 L 259 315 L 259 314 L 260 313 L 260 312 L 261 311 L 262 311 L 266 307 L 266 306 L 269 303 L 269 302 L 280 291 L 280 290 L 292 278 L 293 278 L 300 271 L 300 270 L 301 269 L 303 269 L 313 259 L 314 259 L 315 258 L 316 258 L 320 254 L 321 254 L 321 253 L 324 250 L 325 250 L 326 249 L 327 249 L 328 248 L 329 248 L 334 243 L 335 243 L 337 241 L 338 241 L 341 238 L 342 238 L 343 237 L 344 237 L 345 236 L 346 236 L 348 234 L 349 234 L 351 232 L 352 232 L 352 231 L 353 230 L 354 230 L 356 228 L 358 228 L 359 227 L 360 227 L 361 226 L 362 226 L 364 224 L 365 224 L 367 222 L 368 222 L 369 221 L 370 221 L 371 220 L 372 220 L 375 217 L 378 217 L 379 216 L 380 216 L 381 215 L 382 215 L 383 214 L 384 214 L 386 212 L 387 212 L 388 211 L 389 211 L 390 210 L 391 210 L 392 209 L 393 209 L 395 207 L 399 207 L 400 206 L 401 206 L 402 205 L 403 205 L 404 204 L 405 204 L 406 203 L 407 203 L 408 202 L 410 202 L 411 201 L 412 201 L 413 200 L 414 200 L 415 199 L 416 199 L 417 198 L 419 198 L 420 197 L 424 197 L 425 196 L 426 196 L 427 195 L 429 195 L 430 194 L 432 194 L 433 193 L 435 193 L 436 192 L 437 192 L 438 191 L 440 191 L 441 190 L 444 190 L 445 189 L 447 189 L 448 188 L 450 188 L 451 187 L 453 187 L 454 186 L 459 186 L 460 185 L 464 185 L 465 184 L 467 184 L 468 183 L 472 183 L 473 182 L 477 182 L 478 181 L 481 181 L 482 180 L 487 180 L 488 179 L 491 179 L 492 178 L 498 178 L 499 177 L 504 177 L 505 176 L 522 176 L 523 175 L 544 175 L 545 174 L 719 174 L 721 176 L 721 177 L 724 180 L 724 181 L 727 184 L 727 185 L 736 194 L 737 194 L 739 196 L 740 196 L 741 197 L 742 197 L 743 198 L 744 198 L 745 199 L 746 199 L 747 200 L 748 200 L 749 201 L 750 201 L 751 202 L 752 202 L 753 203 L 755 203 L 756 204 L 759 204 L 760 205 L 763 205 L 764 206 L 782 206 L 783 205 L 787 205 L 788 204 L 790 204 L 791 203 L 793 203 L 794 202 L 796 202 L 797 201 L 798 201 L 800 199 L 801 199 L 802 198 L 803 198 L 804 197 L 806 197 L 807 196 L 808 196 L 818 186 L 819 186 L 820 185 L 820 184 L 821 183 L 821 182 L 823 180 L 823 179 L 826 176 L 826 175 L 827 174 L 827 173 L 828 172 L 828 171 L 829 170 L 829 169 L 830 168 L 830 166 L 831 165 L 831 160 L 832 159 L 832 155 L 833 154 L 833 137 L 832 136 L 832 133 L 831 132 L 831 126 L 830 125 L 830 123 L 829 122 L 829 121 L 828 120 L 828 119 L 827 118 L 827 117 L 824 114 L 824 113 L 823 112 L 823 111 L 820 108 L 820 107 L 812 99 L 811 99 L 809 97 L 809 96 L 808 96 L 807 95 L 806 95 L 805 94 L 803 94 L 801 92 L 800 92 L 799 91 L 798 91 L 797 90 L 796 90 L 795 89 L 793 89 L 792 88 L 790 88 L 789 87 L 786 87 L 785 86 L 779 86 L 778 85 L 769 85 L 768 86 L 762 86 L 761 87 L 757 87 L 756 88 L 754 88 L 753 89 L 751 89 L 750 90 L 749 90 L 747 92 L 746 92 L 745 93 L 744 93 L 743 94 L 741 94 L 738 97 L 737 97 L 733 101 L 732 101 L 728 105 L 728 106 L 725 109 L 725 110 L 723 112 L 723 113 L 719 117 L 645 117 L 644 116 L 644 0 Z" fill="#ff2900"/></svg>